<?xml version="1.0" encoding="UTF-8" standalone="no"?>
<!DOCTYPE svg PUBLIC "-//W3C//DTD SVG 1.1//EN" "http://www.w3.org/Graphics/SVG/1.1/DTD/svg11.dtd">
<svg xmlns="http://www.w3.org/2000/svg" xmlns:xlink="http://www.w3.org/1999/xlink" version="1.1" width="600pt" height="600pt" viewBox="0 0 600 600">
<g enable-background="new">
<clipPath id="cp7">
<path transform="matrix(1,0,0,-1,0,600)" d="M 0 600 L 600 600 L 600 0 L 0 0 Z "/>
</clipPath>
<g clip-path="url(#cp7)">
<path transform="matrix(1,0,0,-1,300,572)" d="M 0 0 C -72.653 0 -140.959 28.293 -192.333 79.667 C -243.707 131.041 -272 199.347 -272 272 C -272 344.654 -243.707 412.959 -192.333 464.333 C -140.959 515.707 -72.653 544 0 544 C 72.653 544 140.959 515.707 192.333 464.333 C 243.707 412.959 272 344.654 272 272 C 272 199.347 243.707 131.041 192.333 79.667 C 140.959 28.293 72.653 0 0 0 " fill="#ffffff"/>
<path transform="matrix(1,0,0,-1,300,20)" d="M 0 0 C -37.793 0 -74.463 -7.405 -108.994 -22.01 C -142.338 -36.114 -172.28 -56.301 -197.99 -82.01 C -223.699 -107.72 -243.887 -137.662 -257.989 -171.006 C -272.595 -205.537 -280 -242.207 -280 -280 C -280 -317.793 -272.595 -354.464 -257.989 -388.993 C -243.887 -422.338 -223.699 -452.28 -197.99 -477.99 C -172.28 -503.699 -142.338 -523.887 -108.994 -537.989 C -74.463 -552.595 -37.793 -560 0 -560 C 37.793 -560 74.463 -552.595 108.994 -537.989 C 142.338 -523.887 172.28 -503.699 197.99 -477.99 C 223.699 -452.28 243.887 -422.338 257.99 -388.993 C 272.595 -354.464 280 -317.793 280 -280 C 280 -242.207 272.595 -205.537 257.99 -171.006 C 243.887 -137.662 223.699 -107.72 197.99 -82.01 C 172.28 -56.301 142.338 -36.114 108.994 -22.01 C 74.463 -7.405 37.793 0 0 0 M 0 -16 C 145.803 -16 264 -134.197 264 -280 C 264 -425.803 145.803 -544 0 -544 C -145.803 -544 -264 -425.803 -264 -280 C -264 -134.197 -145.803 -16 0 -16 " fill="#ffffff"/>
<path transform="matrix(1,0,0,-1,300,300)" d="M 0 0 C 0 0 -160.142 -93.372 -228.669 -132.022 C -274.171 -53.04 -277.485 47.382 -228.631 132 C -174.504 100.75 0 0 0 0 " fill="#1e2c35"/>
<path transform="matrix(1,0,0,-1,300,300)" d="M 0 0 C 0 0 .792 -185.372 .001 -264.044 C -91.152 -263.959 -179.776 -216.618 -228.631 -132 C -174.504 -100.75 0 0 0 0 " fill="#efac1e"/>
<path transform="matrix(1,0,0,-1,300,300)" d="M 0 0 C 0 0 160.934 -92 228.669 -132.021 C 183.02 -210.919 97.708 -264 0 -264 Z " fill="#8aa63d"/>
<path transform="matrix(1,0,0,-1,300,300)" d="M 0 0 C 0 0 160.141 93.373 228.668 132.022 C 274.171 53.04 277.485 -47.382 228.631 -132 C 174.504 -100.75 0 0 0 0 " fill="#e25426"/>
<path transform="matrix(1,0,0,-1,300,300)" d="M 0 0 C 0 0 -.792 185.373 -.001 264.044 C 91.152 263.959 179.776 216.618 228.631 132 C 174.504 100.75 0 0 0 0 " fill="#15c2ee"/>
<path transform="matrix(1,0,0,-1,300,300)" d="M 0 0 C 0 0 -160.934 92 -228.669 132.021 C -183.02 210.919 -97.708 264 0 264 Z " fill="#9ab0b7"/>
</g>
</g>
</svg>
