<?xml version="1.0" encoding="UTF-8" standalone="no"?>
<!DOCTYPE svg PUBLIC "-//W3C//DTD SVG 1.1//EN" "http://www.w3.org/Graphics/SVG/1.1/DTD/svg11.dtd">
<svg xmlns="http://www.w3.org/2000/svg" xmlns:xlink="http://www.w3.org/1999/xlink" version="1.1" width="600pt" height="600pt" viewBox="0 0 600 600">
<g enable-background="new">
<clipPath id="cp6">
<path transform="matrix(1,0,0,-1,0,600)" d="M 0 600 L 600 600 L 600 0 L 0 0 Z "/>
</clipPath>
<g clip-path="url(#cp6)">
<path transform="matrix(1,0,0,-1,300,46)" d="M 0 0 C -140.056 0 -254 -113.944 -254 -254 C -254 -394.056 -140.056 -508 0 -508 C 140.056 -508 254 -394.056 254 -254 C 254 -113.944 140.056 0 0 0 M 0 -529.566 C -37.189 -529.566 -73.281 -522.277 -107.271 -507.9 C -140.087 -494.021 -169.555 -474.154 -194.855 -448.855 C -220.156 -423.553 -240.021 -394.086 -253.9 -361.271 C -268.277 -327.282 -275.566 -291.191 -275.566 -254 C -275.566 -216.809 -268.277 -180.718 -253.9 -146.73 C -240.021 -113.914 -220.156 -84.447 -194.855 -59.145 C -169.554 -33.844 -140.086 -13.979 -107.271 -.1 C -73.281 14.277 -37.189 21.566 0 21.566 C 37.189 21.566 73.281 14.277 107.271 -.1 C 140.086 -13.979 169.554 -33.844 194.855 -59.145 C 220.155 -84.446 240.022 -113.914 253.901 -146.73 C 268.277 -180.718 275.566 -216.81 275.566 -254 C 275.566 -291.19 268.277 -327.282 253.901 -361.271 C 240.022 -394.086 220.155 -423.554 194.855 -448.855 C 169.555 -474.154 140.087 -494.021 107.271 -507.9 C 73.281 -522.277 37.189 -529.566 0 -529.566 " fill="#ffffff"/>
<path transform="matrix(1,0,0,-1,470.4717,509.7442)" d="M 0 0 C -2.607 .001 -4.236 1.082 -5.144 1.99 L -170.472 167.317 L -335.8 1.99 C -336.707 1.082 -338.337 0 -340.944 0 C -350.372 0 -374.476 18.093 -379.945 31.297 C -382.851 38.311 -380.115 42.527 -378.226 44.416 L -212.898 209.744 L -378.226 375.072 C -380.311 377.156 -383.273 381.944 -379.693 390.587 C -374.256 403.714 -355.876 420.651 -343.805 420.651 C -340.63 420.651 -337.861 419.561 -335.8 417.498 L -170.472 252.171 L -5.144 417.498 C -3.082 419.561 -.313 420.651 2.861 420.651 C 14.933 420.651 33.313 403.714 38.75 390.587 C 42.33 381.944 39.367 377.156 37.282 375.072 L -128.045 209.744 L 37.282 44.416 C 39.172 42.526 41.908 38.31 39 31.293 C 33.528 18.088 9.429 0 .002 0 Z " fill="#e26869"/>
<path transform="matrix(1,0,0,-1,88.71,138.20801)" d="M 0 0 L 161.792 -161.792 L 0 -323.584 C -2.231 -325.815 47.271 -375.31 49.498 -373.082 L 211.29 -211.29 L 373.082 -373.082 C 375.31 -375.31 424.812 -325.815 422.58 -323.584 L 260.788 -161.792 L 422.58 0 C 424.969 2.389 376.103 52.518 373.082 49.498 L 211.29 -112.295 L 49.498 49.498 C 46.479 52.517 -2.389 2.389 0 0 M 384.623 44.114 C 397.714 44.114 424.106 15.668 415.509 7.071 L 246.645 -161.792 L 415.509 -330.655 C 424.557 -339.703 390.663 -366.537 381.763 -366.537 C 381.06 -366.537 380.511 -366.368 380.153 -366.011 L 211.29 -197.147 L 42.427 -366.011 C 42.069 -366.369 41.521 -366.537 40.817 -366.537 C 31.915 -366.537 -1.976 -339.703 7.071 -330.655 L 175.935 -161.792 L 7.071 7.071 C -1.526 15.669 24.866 44.117 37.957 44.114 C 39.73 44.114 41.262 43.592 42.427 42.427 L 211.29 -126.437 L 380.153 42.427 C 381.319 43.592 382.849 44.114 384.623 44.114 " fill="#ffffff"/>
<path transform="matrix(1,0,0,-1,300,20)" d="M 0 0 C -37.793 0 -74.463 -7.405 -108.994 -22.011 C -142.338 -36.113 -172.28 -56.301 -197.99 -82.01 C -223.699 -107.72 -243.887 -137.662 -257.989 -171.007 C -272.595 -205.536 -280 -242.207 -280 -280 C -280 -317.793 -272.595 -354.464 -257.989 -388.993 C -243.887 -422.338 -223.699 -452.28 -197.99 -477.99 C -172.28 -503.699 -142.338 -523.886 -108.994 -537.989 C -74.463 -552.595 -37.793 -560 0 -560 C 37.793 -560 74.463 -552.595 108.994 -537.989 C 142.338 -523.886 172.28 -503.699 197.99 -477.99 C 223.699 -452.28 243.887 -422.338 257.99 -388.993 C 272.595 -354.464 280 -317.793 280 -280 C 280 -242.207 272.595 -205.536 257.99 -171.007 C 243.887 -137.662 223.699 -107.72 197.99 -82.01 C 172.28 -56.301 142.338 -36.113 108.994 -22.011 C 74.463 -7.405 37.793 0 0 0 M 0 -16 C 145.803 -16 264 -134.196 264 -280 C 264 -425.803 145.803 -544 0 -544 C -145.803 -544 -264 -425.803 -264 -280 C -264 -134.196 -145.803 -16 0 -16 " fill="#e26869"/>
</g>
</g>
</svg>
