<?xml version="1.0" encoding="UTF-8" standalone="no"?>
<!DOCTYPE svg PUBLIC "-//W3C//DTD SVG 1.1//EN" "http://www.w3.org/Graphics/SVG/1.1/DTD/svg11.dtd">
<svg xmlns="http://www.w3.org/2000/svg" xmlns:xlink="http://www.w3.org/1999/xlink" version="1.1" width="600pt" height="600pt" viewBox="0 0 600 600" class="text-fire">
<g enable-background="new">
<g>
<path transform="matrix(1,0,0,-1,300,572)" d="M 0 0 C -72.653 0 -140.959 28.293 -192.333 79.667 C -243.707 131.041 -272 199.347 -272 272 C -272 344.654 -243.707 412.959 -192.333 464.333 C -140.959 515.707 -72.653 544 0 544 C 72.653 544 140.959 515.707 192.333 464.333 C 243.707 412.959 272 344.654 272 272 C 272 199.347 243.707 131.041 192.333 79.667 C 140.959 28.293 72.653 0 0 0 " class="fill-current"/>
<path transform="matrix(1,0,0,-1,300,20)" d="M 0 0 C -37.793 0 -74.464 -7.405 -108.993 -22.01 C -142.338 -36.114 -172.28 -56.301 -197.99 -82.01 C -223.699 -107.72 -243.887 -137.662 -257.989 -171.006 C -272.595 -205.537 -280 -242.207 -280 -280 C -280 -317.793 -272.595 -354.464 -257.989 -388.993 C -243.887 -422.338 -223.699 -452.28 -197.99 -477.99 C -172.28 -503.699 -142.338 -523.887 -108.993 -537.989 C -74.464 -552.595 -37.793 -560 0 -560 C 37.793 -560 74.464 -552.595 108.993 -537.989 C 142.338 -523.887 172.28 -503.699 197.99 -477.99 C 223.699 -452.28 243.887 -422.338 257.989 -388.993 C 272.595 -354.464 280 -317.793 280 -280 C 280 -242.207 272.595 -205.537 257.989 -171.006 C 243.887 -137.662 223.699 -107.72 197.99 -82.01 C 172.28 -56.301 142.338 -36.114 108.993 -22.01 C 74.464 -7.405 37.793 0 0 0 M 0 -16 C 145.803 -16 264 -134.197 264 -280 C 264 -425.803 145.803 -544 0 -544 C -145.803 -544 -264 -425.803 -264 -280 C -264 -134.197 -145.803 -16 0 -16 " fill="#ffffff"/>
<path transform="matrix(1,0,0,-1,386.0616,230.0542)" d="M 0 0 C -42.5 34.5 -58.5 99.5 -47 143.5 C -72.5 141 -113.272 118.212 -130.5 54 C -152.5 -28 -86.504 -86.5 -130.5 -116.5 C -181.944 -151.579 -217 -90.5 -212.5 -34 C -242.5 -57.5 -260.947 -153.579 -222 -212 C -194 -254 -158.189 -278.136 -112.484 -283.391 C -127.229 -272.949 -128.225 -253.478 -123 -238.5 C -115.5 -217 -90.761 -207.393 -67.5 -189.5 C -41.5 -169.5 -30.5 -149.5 -29 -140 C -16 -159.5 -.419 -188.317 -13.5 -231 C -19.513 -250.62 -30.479 -269.34 -47.839 -280.45 C 7.137 -266.249 71.825 -218.559 72 -134.5 C 72.156 -59.5 34.135 -27.709 0 0 " fill="#ffffff"/>
</g>
</g>
</svg>
