<?xml version="1.0" encoding="UTF-8" standalone="no"?>
<!DOCTYPE svg PUBLIC "-//W3C//DTD SVG 1.1//EN" "http://www.w3.org/Graphics/SVG/1.1/DTD/svg11.dtd">
<svg xmlns="http://www.w3.org/2000/svg" xmlns:xlink="http://www.w3.org/1999/xlink" version="1.1" width="600pt" height="600pt" viewBox="0 0 600 600" class="text-frost">
<g enable-background="new">
<g>
<path transform="matrix(1,0,0,-1,300.0003,572)" d="M 0 0 C -72.654 0 -140.959 28.293 -192.333 79.667 C -243.707 131.041 -272 199.347 -272 272 C -272 344.654 -243.707 412.959 -192.333 464.333 C -140.959 515.707 -72.654 544 0 544 C 72.653 544 140.959 515.707 192.333 464.333 C 243.707 412.959 272 344.654 272 272 C 272 199.347 243.707 131.041 192.333 79.667 C 140.959 28.293 72.653 0 0 0 " class="fill-current"/>
<path transform="matrix(1,0,0,-1,300.0003,20)" d="M 0 0 C -37.793 0 -74.464 -7.405 -108.994 -22.01 C -142.338 -36.114 -172.28 -56.301 -197.99 -82.01 C -223.699 -107.72 -243.887 -137.662 -257.99 -171.006 C -272.595 -205.537 -280 -242.207 -280 -280 C -280 -317.793 -272.595 -354.464 -257.99 -388.993 C -243.887 -422.338 -223.699 -452.28 -197.99 -477.99 C -172.28 -503.699 -142.338 -523.887 -108.994 -537.989 C -74.464 -552.595 -37.793 -560 0 -560 C 37.792 -560 74.463 -552.595 108.993 -537.989 C 142.337 -523.887 172.28 -503.699 197.989 -477.99 C 223.699 -452.28 243.886 -422.338 257.989 -388.993 C 272.595 -354.464 280 -317.793 280 -280 C 280 -242.207 272.595 -205.537 257.989 -171.006 C 243.886 -137.662 223.699 -107.72 197.989 -82.01 C 172.28 -56.301 142.337 -36.114 108.993 -22.01 C 74.463 -7.405 37.792 0 0 0 M 0 -16 C 145.803 -16 264 -134.197 264 -280 C 264 -425.803 145.803 -544 0 -544 C -145.804 -544 -264 -425.803 -264 -280 C -264 -134.197 -145.804 -16 0 -16 " fill="#ffffff"/>
<path transform="matrix(1,0,0,-1,300.0003,343.6426)" d="M 0 0 L -37.729 21.782 L -37.729 65.349 L 0 87.132 L 37.729 65.349 L 37.729 21.782 Z M 182.664 -2.602 L 144.525 -30.588 L 113.949 -12.064 L 163.449 22.609 C 166.615 24.827 167.384 29.192 165.166 32.359 C 162.947 35.524 158.584 36.295 155.416 34.076 L 100.863 -4.137 L 51.729 25.63 L 51.729 61.501 L 100.864 91.269 L 155.416 53.055 C 156.639 52.199 158.039 51.788 159.427 51.788 C 161.633 51.788 163.804 52.828 165.166 54.772 C 167.384 57.938 166.615 62.304 163.449 64.521 L 113.95 99.196 L 144.525 117.72 L 182.664 89.733 C 183.912 88.817 185.362 88.376 186.8 88.376 C 188.953 88.376 191.078 89.366 192.449 91.235 C 194.736 94.353 194.063 98.733 190.947 101.021 L 157.488 125.573 L 186.824 143.346 C 190.172 145.278 191.319 149.56 189.387 152.908 C 187.454 156.256 183.174 157.404 179.824 155.47 L 149.759 139.005 L 145.23 180.204 C 144.809 184.048 141.349 186.825 137.508 186.397 C 133.665 185.975 130.892 182.518 131.314 178.675 L 136.475 131.73 L 105.141 114.571 L 99.873 174.64 C 99.535 178.49 96.162 181.35 92.288 181.001 C 88.437 180.664 85.589 177.268 85.926 173.417 L 91.729 107.227 L 41.16 79.534 L 10.482 97.246 L 9.212 154.965 L 69.49 183.06 C 72.994 184.692 74.511 188.857 72.878 192.361 C 71.245 195.864 67.082 197.383 63.576 195.749 L 8.875 170.254 L 8.088 205.979 L 51.35 224.996 C 54.89 226.552 56.497 230.682 54.941 234.221 C 53.385 237.759 49.255 239.369 45.717 237.812 L 7.755 221.125 L 7 255.404 C 7 259.271 3.866 262.404 0 262.404 C -3.866 262.404 -7 259.271 -7 255.404 L -7.746 221.122 L -45.718 237.812 C -49.256 239.369 -53.388 237.759 -54.942 234.221 C -56.498 230.682 -54.891 226.552 -51.351 224.996 L -8.075 205.974 L -8.853 170.244 L -63.577 195.749 C -67.083 197.382 -71.245 195.865 -72.879 192.361 C -74.512 188.857 -72.995 184.692 -69.491 183.06 L -9.186 154.953 L -10.439 97.27 L -41.15 79.54 L -91.729 107.234 L -85.927 173.417 C -85.59 177.268 -88.437 180.664 -92.289 181.001 C -96.147 181.348 -99.537 178.49 -99.874 174.64 L -105.14 114.577 L -136.474 131.734 L -131.315 178.675 C -130.893 182.518 -133.666 185.976 -137.509 186.397 C -141.339 186.822 -144.809 184.048 -145.231 180.204 L -149.759 139.008 L -179.824 155.471 C -183.172 157.403 -187.453 156.256 -189.387 152.908 C -191.319 149.561 -190.172 145.279 -186.824 143.347 L -157.488 125.574 L -190.948 101.021 C -194.064 98.733 -194.737 94.353 -192.45 91.236 C -191.079 89.367 -188.954 88.377 -186.801 88.377 C -185.363 88.377 -183.913 88.818 -182.665 89.733 L -144.525 117.72 L -113.95 99.196 L -163.45 64.521 C -166.616 62.304 -167.385 57.938 -165.167 54.772 C -163.805 52.828 -161.634 51.788 -159.428 51.788 C -158.041 51.788 -156.64 52.199 -155.417 53.055 L -100.864 91.269 L -51.729 61.5 L -51.729 26.002 L -101.045 -4.011 L -155.418 34.076 C -158.582 36.295 -162.947 35.525 -165.167 32.358 C -167.385 29.192 -166.616 24.827 -163.449 22.609 L -114.103 -11.957 L -144.612 -30.524 L -182.665 -2.602 C -185.783 -.313 -190.164 -.988 -192.45 -4.104 C -194.737 -7.221 -194.064 -11.602 -190.948 -13.889 L -157.549 -38.397 L -186.824 -56.214 C -190.172 -58.147 -191.319 -62.429 -189.387 -65.776 C -188.09 -68.022 -185.737 -69.277 -183.317 -69.277 C -182.13 -69.277 -180.927 -68.975 -179.824 -68.339 L -149.767 -51.802 L -145.231 -93.072 C -144.838 -96.655 -141.806 -99.309 -138.282 -99.309 C -138.026 -99.309 -137.769 -99.294 -137.509 -99.266 C -133.666 -98.844 -130.893 -95.386 -131.315 -91.543 L -136.485 -44.495 L -105.156 -27.259 L -99.874 -87.508 C -99.555 -91.151 -96.498 -93.896 -92.908 -93.896 C -92.704 -93.896 -92.497 -93.888 -92.289 -93.87 C -88.437 -93.532 -85.59 -90.137 -85.927 -86.285 L -91.748 -19.883 L -41.472 7.777 L -10.562 -10.068 L -9.263 -67.703 L -69.491 -95.774 C -72.995 -97.407 -74.512 -101.572 -72.879 -105.076 C -71.691 -107.624 -69.167 -109.121 -66.529 -109.121 C -65.54 -109.121 -64.533 -108.909 -63.577 -108.464 L -8.918 -82.988 L -8.113 -118.705 L -51.351 -137.711 C -54.891 -139.267 -56.498 -143.396 -54.942 -146.936 C -53.789 -149.559 -51.223 -151.121 -48.53 -151.121 C -47.59 -151.121 -46.634 -150.93 -45.718 -150.527 L -7.772 -133.848 L -7 -168.119 C -7 -171.985 -3.866 -175.119 0 -175.119 C 3.866 -175.119 7 -171.985 7 -168.119 L 7.729 -133.828 L 45.717 -150.527 C 46.633 -150.931 47.589 -151.121 48.529 -151.121 C 51.222 -151.121 53.789 -149.559 54.941 -146.936 C 56.497 -143.396 54.89 -139.267 51.351 -137.711 L 8.05 -118.677 L 8.809 -82.938 L 63.576 -108.464 C 64.533 -108.91 65.538 -109.121 66.528 -109.121 C 69.165 -109.121 71.69 -107.624 72.878 -105.076 C 74.511 -101.572 72.994 -97.407 69.49 -95.774 L 9.134 -67.644 L 10.354 -10.188 L 41.151 7.593 L 91.729 -20.102 L 85.926 -86.285 C 85.589 -90.137 88.437 -93.532 92.288 -93.87 C 92.496 -93.888 92.702 -93.896 92.907 -93.896 C 96.497 -93.896 99.553 -91.151 99.873 -87.508 L 105.14 -27.444 L 136.473 -44.602 L 131.314 -91.543 C 130.892 -95.386 133.665 -98.844 137.508 -99.266 C 137.768 -99.294 138.025 -99.309 138.281 -99.309 C 141.804 -99.309 144.837 -96.655 145.23 -93.072 L 149.758 -51.875 L 179.824 -68.339 C 180.927 -68.975 182.13 -69.277 183.317 -69.277 C 185.736 -69.277 188.09 -68.021 189.387 -65.776 C 191.319 -62.429 190.172 -58.147 186.824 -56.214 L 157.488 -38.441 L 190.947 -13.889 C 194.063 -11.602 194.736 -7.221 192.449 -4.104 C 190.163 -.987 185.782 -.313 182.664 -2.602 " fill="#ffffff"/>
</g>
</g>
</svg>
