<?xml version="1.0" encoding="UTF-8" standalone="no"?>
<!DOCTYPE svg PUBLIC "-//W3C//DTD SVG 1.1//EN" "http://www.w3.org/Graphics/SVG/1.1/DTD/svg11.dtd">
<svg xmlns="http://www.w3.org/2000/svg" xmlns:xlink="http://www.w3.org/1999/xlink" version="1.1" width="600pt" height="600pt" viewBox="0 0 600 600" class="text-leaf">
<g enable-background="new">
<g>
<path transform="matrix(1,0,0,-1,300,572)" d="M 0 0 C -72.654 0 -140.959 28.293 -192.333 79.667 C -243.707 131.041 -272 199.347 -272 272 C -272 344.653 -243.707 412.959 -192.333 464.333 C -140.959 515.707 -72.654 544 0 544 C 72.653 544 140.959 515.707 192.333 464.333 C 243.707 412.959 272 344.653 272 272 C 272 199.347 243.707 131.041 192.333 79.667 C 140.959 28.293 72.653 0 0 0 " class="fill-current"/>
<path transform="matrix(1,0,0,-1,300,20)" d="M 0 0 C -37.793 0 -74.463 -7.405 -108.994 -22.011 C -142.338 -36.113 -172.28 -56.301 -197.99 -82.01 C -223.699 -107.72 -243.886 -137.662 -257.99 -171.007 C -272.595 -205.536 -280 -242.207 -280 -280 C -280 -317.793 -272.595 -354.464 -257.99 -388.993 C -243.886 -422.338 -223.699 -452.28 -197.99 -477.99 C -172.28 -503.699 -142.338 -523.886 -108.994 -537.989 C -74.463 -552.595 -37.793 -560 0 -560 C 37.793 -560 74.464 -552.595 108.993 -537.989 C 142.338 -523.886 172.28 -503.699 197.99 -477.99 C 223.699 -452.28 243.887 -422.338 257.989 -388.993 C 272.595 -354.464 280 -317.793 280 -280 C 280 -242.207 272.595 -205.536 257.989 -171.007 C 243.887 -137.662 223.699 -107.72 197.99 -82.01 C 172.28 -56.301 142.338 -36.113 108.993 -22.011 C 74.464 -7.405 37.793 0 0 0 M 0 -16 C 145.803 -16 264 -134.196 264 -280 C 264 -425.803 145.803 -544 0 -544 C -145.803 -544 -264 -425.803 -264 -280 C -264 -134.196 -145.803 -16 0 -16 " fill="#ffffff"/>
<path transform="matrix(1,0,0,-1,191.8486,394.8545)" d="M 0 0 C -.423 -4 -4.892 -6.179 -8.264 -3.987 C -32.547 11.792 -93.835 76.69 -19.835 158.822 C 53.652 240.385 149.732 196.683 245.867 254.695 C 248.774 256.45 252.532 254.86 253.268 251.545 C 266.402 192.373 274.229 63.569 214.165 4.322 C 140.665 -68.178 80.665 -36.178 48.165 -24.678 C 46.665 -42.678 52.666 -66.599 57.666 -83.099 C 62.666 -99.599 30.665 -104.178 26.665 -101.178 C 22.665 -98.178 8.054 -17.425 45.165 31.822 C 92.665 94.854 208.165 149.822 211.665 194.322 C 189.165 174.322 159.856 147.804 82.665 104.822 C 14.221 66.711 2.036 19.224 0 0 " fill="#ffffff"/>
</g>
</g>
</svg>
