<?xml version="1.0" encoding="UTF-8" standalone="no"?>
<!DOCTYPE svg PUBLIC "-//W3C//DTD SVG 1.1//EN" "http://www.w3.org/Graphics/SVG/1.1/DTD/svg11.dtd">
<svg xmlns="http://www.w3.org/2000/svg" xmlns:xlink="http://www.w3.org/1999/xlink" version="1.1" width="600pt" height="600pt" viewBox="0 0 600 600" class="text-moon">
<g enable-background="new">
<g>
<path transform="matrix(1,0,0,-1,300,572)" d="M 0 0 C -72.653 0 -140.959 28.293 -192.333 79.667 C -243.707 131.041 -272 199.347 -272 272 C -272 344.653 -243.707 412.959 -192.333 464.333 C -140.959 515.707 -72.653 544 0 544 C 72.653 544 140.959 515.707 192.333 464.333 C 243.707 412.959 272 344.653 272 272 C 272 199.347 243.707 131.041 192.333 79.667 C 140.959 28.293 72.653 0 0 0 " class="fill-current"/>
<path transform="matrix(1,0,0,-1,300,20)" d="M 0 0 C -37.793 0 -74.464 -7.405 -108.993 -22.011 C -142.338 -36.113 -172.28 -56.301 -197.99 -82.01 C -223.699 -107.72 -243.887 -137.662 -257.989 -171.007 C -272.595 -205.536 -280 -242.207 -280 -280 C -280 -317.793 -272.595 -354.464 -257.989 -388.993 C -243.887 -422.338 -223.699 -452.28 -197.99 -477.99 C -172.28 -503.699 -142.338 -523.886 -108.993 -537.989 C -74.464 -552.595 -37.793 -560 0 -560 C 37.793 -560 74.464 -552.595 108.993 -537.989 C 142.338 -523.886 172.28 -503.699 197.99 -477.99 C 223.699 -452.28 243.887 -422.338 257.989 -388.993 C 272.595 -354.464 280 -317.793 280 -280 C 280 -242.207 272.595 -205.536 257.989 -171.007 C 243.887 -137.662 223.699 -107.72 197.99 -82.01 C 172.28 -56.301 142.338 -36.113 108.993 -22.011 C 74.464 -7.405 37.793 0 0 0 M 0 -16 C 145.803 -16 264 -134.196 264 -280 C 264 -425.803 145.803 -544 0 -544 C -145.803 -544 -264 -425.803 -264 -280 C -264 -134.196 -145.803 -16 0 -16 " fill="#ffffff"/>
<path transform="matrix(1,0,0,-1,345.8301,445.78523)" d="M 0 0 C -8.87 0 -17.561 .8 -26 2.32 C -19.94 5.101 -14.08 8.261 -8.46 11.761 C -6.674 12.873 -4.921 14.032 -3.184 15.214 C 69.906 16.417 128.779 74.408 128.779 145.78 C 128.779 217.165 69.902 275.158 -3.192 276.357 C -4.931 277.538 -6.684 278.697 -8.471 279.811 C -14.09 283.311 -19.94 286.47 -26 289.25 C -17.561 290.771 -8.87 291.57 0 291.57 C 80.38 291.57 145.779 226.17 145.779 145.78 C 145.779 65.4 80.38 0 0 0 M -45.83 7.38 C -52.25 5.24 -58.88 3.55 -65.66 2.32 C -74.1 .8 -82.78 0 -91.65 0 C -172.04 0 -237.44 65.4 -237.44 145.78 C -237.44 226.17 -172.04 291.57 -91.65 291.57 C -82.78 291.57 -74.1 290.771 -65.66 289.25 C -58.88 288.021 -52.25 286.33 -45.83 284.19 C -39.811 282.2 -33.96 279.811 -28.32 277.08 C 20.43 253.47 54.13 203.49 54.13 145.78 C 54.13 88.08 20.43 38.101 -28.32 14.49 C -33.96 11.761 -39.811 9.37 -45.83 7.38 M 0 303.57 C -15.93 303.57 -31.311 301.2 -45.82 296.78 C -60.33 301.2 -75.721 303.57 -91.65 303.57 C -178.66 303.57 -249.44 232.79 -249.44 145.78 C -249.44 58.78 -178.66 -12 -91.65 -12 C -75.721 -12 -60.33 -9.63 -45.82 -5.21 C -31.311 -9.63 -15.93 -12 0 -12 C 87 -12 157.779 58.78 157.779 145.78 C 157.779 232.79 87 303.57 0 303.57 " fill="#ffffff"/>
</g>
</g>
</svg>
