<?xml version="1.0" encoding="UTF-8" standalone="no"?>
<!DOCTYPE svg PUBLIC "-//W3C//DTD SVG 1.1//EN" "http://www.w3.org/Graphics/SVG/1.1/DTD/svg11.dtd">
<svg xmlns="http://www.w3.org/2000/svg" xmlns:xlink="http://www.w3.org/1999/xlink" version="1.1" width="600pt" height="600pt" viewBox="0 0 600 600" class="text-sun">
<g enable-background="new">
<g>
<path transform="matrix(1,0,0,-1,300.0003,572)" d="M 0 0 C -72.654 0 -140.959 28.293 -192.333 79.667 C -243.707 131.041 -272 199.347 -272 272 C -272 344.653 -243.707 412.959 -192.333 464.333 C -140.959 515.707 -72.654 544 0 544 C 72.653 544 140.959 515.707 192.333 464.333 C 243.707 412.959 272 344.653 272 272 C 272 199.347 243.707 131.041 192.333 79.667 C 140.959 28.293 72.653 0 0 0 " class="fill-current"/>
<path transform="matrix(1,0,0,-1,300.0003,20)" d="M 0 0 C -37.793 0 -74.464 -7.405 -108.994 -22.011 C -142.338 -36.113 -172.28 -56.301 -197.99 -82.01 C -223.699 -107.72 -243.887 -137.662 -257.99 -171.007 C -272.595 -205.536 -280 -242.207 -280 -280 C -280 -317.793 -272.595 -354.464 -257.99 -388.993 C -243.887 -422.338 -223.699 -452.28 -197.99 -477.99 C -172.28 -503.699 -142.338 -523.886 -108.994 -537.989 C -74.464 -552.595 -37.793 -560 0 -560 C 37.792 -560 74.463 -552.595 108.993 -537.989 C 142.337 -523.886 172.28 -503.699 197.989 -477.99 C 223.699 -452.28 243.886 -422.338 257.989 -388.993 C 272.595 -354.464 280 -317.793 280 -280 C 280 -242.207 272.595 -205.536 257.989 -171.007 C 243.886 -137.662 223.699 -107.72 197.989 -82.01 C 172.28 -56.301 142.337 -36.113 108.993 -22.011 C 74.463 -7.405 37.792 0 0 0 M 0 -16 C 145.803 -16 264 -134.196 264 -280 C 264 -425.803 145.803 -544 0 -544 C -145.804 -544 -264 -425.803 -264 -280 C -264 -134.196 -145.804 -16 0 -16 " fill="#ffffff"/>
<path transform="matrix(1,0,0,-1,420.6917,336.6729)" d="M 0 0 L -9.044 27.255 L 14.461 36.673 L -9.043 46.091 L -.001 73.343 L 61.996 36.67 Z M 8.504 -92.473 L -61.272 -74.584 L -48.403 -48.934 L -25.124 -58.895 L -35.085 -35.615 L -9.41 -22.733 Z M -120.638 -145.965 L -157.331 -84.008 L -130.109 -74.976 L -120.691 -98.479 L -111.274 -74.976 L -84.012 -84.021 Z M -249.78 -92.473 L -231.932 -22.755 L -206.299 -35.615 L -216.259 -58.895 L -192.98 -48.934 L -180.105 -74.595 Z M -303.272 36.67 L -241.375 73.318 L -232.341 46.09 L -255.845 36.673 L -232.341 27.256 L -241.376 .024 Z M -249.78 165.812 L -180.106 147.937 L -192.98 122.279 L -216.259 132.24 L -206.299 108.961 L -231.933 96.101 Z M -120.638 219.305 L -84.013 157.366 L -111.273 148.32 L -120.691 171.825 L -130.109 148.32 L -157.33 157.353 Z M -54.238 64.199 L -40.16 97.099 L -13.238 81.173 L -21.018 50.889 Z M -54.238 9.146 L -21.018 22.457 L -13.238 -7.83 L -40.16 -23.754 Z M -93.166 -29.781 L -60.264 -43.859 L -76.173 -70.765 L -106.475 -62.996 Z M -148.218 -29.781 L -134.908 -62.998 L -165.175 -70.764 L -181.111 -43.855 Z M -187.145 9.146 L -201.221 -23.749 L -228.11 -7.829 L -220.357 22.454 Z M -187.145 64.199 L -220.357 50.892 L -228.11 81.173 L -201.221 97.094 Z M -148.218 103.127 L -181.111 117.201 L -165.176 144.107 L -134.909 136.343 Z M -93.166 103.127 L -106.474 136.34 L -76.172 144.107 L -60.264 117.205 Z M 8.504 165.812 L -9.409 96.079 L -35.085 108.961 L -25.124 132.24 L -48.403 122.279 L -61.271 147.927 Z M 98.306 42.036 L 5.124 88.788 L 37.955 187.735 C 38.67 189.89 38.108 192.263 36.503 193.867 C 34.898 195.472 32.523 196.038 30.371 195.319 L -68.576 162.488 L -115.328 255.671 C -116.347 257.7 -118.422 258.98 -120.691 258.98 C -122.961 258.98 -125.036 257.7 -126.055 255.671 L -172.807 162.488 L -271.754 195.319 C -273.907 196.037 -276.282 195.472 -277.886 193.867 C -279.491 192.263 -280.053 189.89 -279.338 187.735 L -246.508 88.787 L -339.689 42.036 C -341.719 41.018 -342.999 38.942 -342.999 36.673 C -342.999 34.403 -341.719 32.328 -339.689 31.31 L -246.508 -15.441 L -279.338 -114.39 C -280.053 -116.544 -279.491 -118.917 -277.886 -120.521 C -276.281 -122.126 -273.908 -122.69 -271.754 -121.974 L -172.807 -89.143 L -126.055 -182.325 C -125.036 -184.354 -122.961 -185.635 -120.691 -185.635 C -118.422 -185.635 -116.347 -184.354 -115.328 -182.325 L -68.577 -89.143 L 30.371 -121.974 C 30.99 -122.18 31.628 -122.279 32.26 -122.279 C 33.826 -122.279 35.36 -121.665 36.503 -120.521 C 38.108 -118.917 38.67 -116.544 37.955 -114.39 L 5.123 -15.442 L 98.306 31.31 C 100.335 32.328 101.615 34.403 101.615 36.673 C 101.615 38.942 100.335 41.018 98.306 42.036 " fill="#ffffff"/>
</g>
</g>
</svg>
