<?xml version="1.0" encoding="UTF-8" standalone="no"?>
<!DOCTYPE svg PUBLIC "-//W3C//DTD SVG 1.1//EN" "http://www.w3.org/Graphics/SVG/1.1/DTD/svg11.dtd">
<svg xmlns="http://www.w3.org/2000/svg" xmlns:xlink="http://www.w3.org/1999/xlink" version="1.1" width="600pt" height="600pt" viewBox="0 0 600 600" class="text-wind">
<g enable-background="new">
<g>
<path transform="matrix(1,0,0,-1,300,572)" d="M 0 0 C -72.654 0 -140.959 28.293 -192.333 79.667 C -243.707 131.041 -272 199.347 -272 272 C -272 344.654 -243.707 412.959 -192.333 464.333 C -140.959 515.707 -72.654 544 0 544 C 72.653 544 140.959 515.707 192.333 464.333 C 243.707 412.959 272 344.654 272 272 C 272 199.347 243.707 131.041 192.333 79.667 C 140.959 28.293 72.653 0 0 0 " class="fill-current"/>
<path transform="matrix(1,0,0,-1,300,20)" d="M 0 0 C -37.793 0 -74.463 -7.405 -108.994 -22.01 C -142.338 -36.114 -172.28 -56.301 -197.99 -82.01 C -223.699 -107.72 -243.886 -137.662 -257.99 -171.006 C -272.595 -205.537 -280 -242.207 -280 -280 C -280 -317.793 -272.595 -354.464 -257.99 -388.993 C -243.886 -422.338 -223.699 -452.28 -197.99 -477.99 C -172.28 -503.699 -142.338 -523.887 -108.994 -537.989 C -74.463 -552.595 -37.793 -560 0 -560 C 37.793 -560 74.464 -552.595 108.993 -537.989 C 142.338 -523.887 172.28 -503.699 197.99 -477.99 C 223.699 -452.28 243.887 -422.338 257.989 -388.993 C 272.595 -354.464 280 -317.793 280 -280 C 280 -242.207 272.595 -205.537 257.989 -171.006 C 243.887 -137.662 223.699 -107.72 197.99 -82.01 C 172.28 -56.301 142.338 -36.114 108.993 -22.01 C 74.464 -7.405 37.793 0 0 0 M 0 -16 C 145.803 -16 264 -134.197 264 -280 C 264 -425.803 145.803 -544 0 -544 C -145.803 -544 -264 -425.803 -264 -280 C -264 -134.197 -145.803 -16 0 -16 " fill="#ffffff"/>
<path transform="matrix(1,0,0,-1,78.6426,327.2207)" d="M 0 0 C -1.381 .291 -1.32 2.293 .079 2.479 C 12.583 4.151 42.638 5.236 81.739 -13.187 C 133.739 -37.687 217.708 -92.423 267.439 -89.45 C 309.489 -86.937 329.97 -71.125 327.739 -51.687 C 325.989 -36.437 308.989 -26.437 295.989 -31.437 C 282.989 -36.437 277.239 -48.187 278.239 -59.187 C 267.239 -50.687 271.239 -34.187 274.739 -29.687 C 278.239 -25.187 297.431 .98 330.239 -21.687 C 357.739 -40.687 346.114 -77.701 330.239 -91.687 C 319.739 -100.937 288.239 -124.187 228.739 -109.187 C 169.239 -94.187 105.09 -39.854 71.239 -23.687 C 40.085 -8.808 26.661 -5.604 0 0 " fill="#ffffff"/>
<path transform="matrix(1,0,0,-1,168.0537,320.626)" d="M 0 0 C -.97 .531 -.358 2.014 .7 1.69 C 22.94 -5.1 79.474 -17.895 120.328 -7.281 C 179.995 8.219 190.828 43.718 250.328 72.552 C 288.279 90.942 337.828 77.718 351.328 40.718 C 364.828 3.719 329.661 -21.781 301.828 -20.281 C 278.856 -19.044 263.337 -5.926 260.328 4.738 C 256.995 16.552 261.661 31.885 275.328 36.218 C 271.328 18.219 281.114 -1.461 301.328 -.281 C 321.328 .885 338.995 25.941 320.328 44.718 C 301.632 63.525 278.328 59.885 264.328 51.218 C 249.4 41.977 214.328 7.219 184.328 -7.281 C 155.538 -21.196 113.368 -36.377 69.761 -24.782 C 32.61 -14.904 21.208 -11.607 0 0 " fill="#ffffff"/>
<path transform="matrix(1,0,0,-1,111.6816,286.8286)" d="M 0 0 C -1.263 .484 -.869 2.371 .483 2.316 C 17.613 1.622 65.529 2.408 90.7 30.421 C 121.7 64.921 114.641 88.458 142.2 113.421 C 161.45 130.857 205.47 136.412 236.45 109.921 C 270.95 80.421 252.617 22.837 218.367 5.087 C 189.365 -9.942 152.95 -5.079 144.7 18.421 C 135.513 44.59 154.45 67.671 173.7 67.421 C 194.002 67.157 191.2 46.921 191.2 46.921 C 191.2 46.921 185.2 57.416 176.95 56.171 C 166.495 54.594 157.269 41.498 162.7 28.421 C 169.45 12.171 198.477 4.978 219.367 29.754 C 240.867 55.254 236.2 89.921 200.7 102.421 C 167.89 113.974 148.652 89.774 131.2 57.416 C 117.45 31.921 101.95 -.579 54.7 -3.299 C 20.066 -5.293 6.654 -2.553 0 0 " fill="#ffffff"/>
</g>
</g>
</svg>
